<?xml version="1.0" encoding="utf-8"?>
<!-- Generator: Adobe Illustrator 19.1.0, SVG Export Plug-In . SVG Version: 6.00 Build 0)  -->
<svg version="1.1" id="Layer_1" xmlns="http://www.w3.org/2000/svg" xmlns:xlink="http://www.w3.org/1999/xlink" x="0px" y="0px"
	 viewBox="206 -206 512 512" style="enable-background:new 206 -206 512 512;" xml:space="preserve">
<style type="text/css">
	.st0{fill:#FFFFFF;}
</style>
<path class="st0" d="M543.8,228.7l-73.3,73.8c-4.7,4.7-12.3,4.7-17,0l-73.3-73.8c-4.7-4.7-4.7-12.3,0-17l7.1-7.1
	c4.7-4.7,12.3-4.7,17,0l40.7,41.2h1V66H266.1v1l41.2,40.7c4.7,4.7,4.7,12.3,0,17l-7.1,7.1c-4.7,4.7-12.3,4.7-17,0l-73.8-73.3
	c-4.7-4.7-4.7-12.3,0-17l73.8-73.3c4.7-4.7,12.3-4.7,17,0l7.1,7.1c4.7,4.7,4.7,12.3,0,17L266.1,33v1H446v-179.9h-1l-40.7,41.2
	c-4.7,4.7-12.3,4.7-17,0l-7.1-7.1c-4.7-4.7-4.7-12.3,0-17l73.3-73.8c4.7-4.7,12.3-4.7,17,0l73.3,73.8c4.7,4.7,4.7,12.3,0,17
	l-7.1,7.1c-4.7,4.7-12.3,4.7-17,0L479-145.9h-1V34h179.9v-1L616.7-7.7c-4.7-4.7-4.7-12.3,0-17l7.1-7.1c4.7-4.7,12.3-4.7,17,0
	l73.8,73.3c4.7,4.7,4.7,12.3,0,17l-73.8,73.3c-4.7,4.7-12.3,4.7-17,0l-7.1-7.1c-4.7-4.7-4.7-12.3,0-17L657.9,67v-1H478v179.9h1
	l40.7-41.2c4.7-4.7,12.3-4.7,17,0l7.1,7.1C548.5,216.4,548.5,224,543.8,228.7z"/>
</svg>
