<?xml version="1.0" encoding="utf-8"?>
<!-- Generator: Adobe Illustrator 19.1.0, SVG Export Plug-In . SVG Version: 6.00 Build 0)  -->
<svg version="1.1" id="Layer_1" xmlns="http://www.w3.org/2000/svg" xmlns:xlink="http://www.w3.org/1999/xlink" x="0px" y="0px"
	 viewBox="174 -206 448 512" style="enable-background:new 174 -206 448 512;" xml:space="preserve">
<style type="text/css">
	.st0{fill:#FFFFFF;}
</style>
<path class="st0" d="M607.9-140.1l-51.9-51.9c-9-9-21.2-14.1-33.9-14.1H350c-26.5,0-48,21.5-48,48v48h-80c-26.5,0-48,21.5-48,48v320
	c0,26.5,21.5,48,48,48h224c26.5,0,48-21.5,48-48v-48h80c26.5,0,48-21.5,48-48v-268.1C622-118.8,616.9-131.1,607.9-140.1z M526-173.5
	c2.8,0.7,5.4,2.1,7.4,4.2l51.9,51.9c2,2,3.5,4.6,4.2,7.4H526V-173.5z M462,258c0,8.8-7.2,16-16,16H222c-8.8,0-16-7.2-16-16V-62
	c0-8.8,7.2-16,16-16h80v240c0,26.5,21.5,48,48,48h112V258z M590,162c0,8.8-7.2,16-16,16H350c-8.8,0-16-7.2-16-16v-320
	c0-8.8,7.2-16,16-16h144v72c0,13.2,10.8,24,24,24h72V162z"/>
</svg>
