<?xml version="1.0" encoding="utf-8"?>
<!-- Generator: Adobe Illustrator 19.1.0, SVG Export Plug-In . SVG Version: 6.00 Build 0)  -->
<svg version="1.1" id="Layer_1" xmlns="http://www.w3.org/2000/svg" xmlns:xlink="http://www.w3.org/1999/xlink" x="0px" y="0px"
	 viewBox="142 -206 384 512" style="enable-background:new 142 -206 384 512;" xml:space="preserve">
<style type="text/css">
	.st0{fill:#FFFFFF;}
</style>
<path class="st0" d="M518,26H358v-160c0-4.4-3.6-8-8-8h-32c-4.4,0-8,3.6-8,8V26H150c-4.4,0-8,3.6-8,8v32c0,4.4,3.6,8,8,8h160v160
	c0,4.4,3.6,8,8,8h32c4.4,0,8-3.6,8-8V74h160c4.4,0,8-3.6,8-8V34C526,29.6,522.4,26,518,26z"/>
</svg>
