<?xml version="1.0" encoding="utf-8"?>
<!-- Generator: Adobe Illustrator 19.1.0, SVG Export Plug-In . SVG Version: 6.00 Build 0)  -->
<svg version="1.1" id="Layer_1" xmlns="http://www.w3.org/2000/svg" xmlns:xlink="http://www.w3.org/1999/xlink" x="0px" y="0px"
	 viewBox="174 -206 448 512" style="enable-background:new 174 -206 448 512;" xml:space="preserve">
<style type="text/css">
	.st0{fill:#FFFFFF;}
</style>
<path class="st0" d="M614-142H510l-33.6-44.8c-9.1-12.1-23.3-19.2-38.4-19.2h-80c-15.1,0-29.3,7.1-38.4,19.2L286-142H182
	c-4.4,0-8,3.6-8,8v16c0,4.4,3.6,8,8,8h18.9l33.2,372.3c2.2,24.7,23,43.7,47.8,43.7h232.2c24.8,0,45.6-19,47.8-43.7L595.1-110H614
	c4.4,0,8-3.6,8-8v-16C622-138.4,618.4-142,614-142z M345.2-167.6c3-4,7.8-6.4,12.8-6.4h80c5,0,9.8,2.4,12.8,6.4L470-142H326
	L345.2-167.6z M530,259.4c-0.7,8.3-7.6,14.6-15.9,14.6H281.9c-8.3,0-15.2-6.3-15.9-14.6L233-110h330L530,259.4z"/>
</svg>
